<svg xmlns="http://www.w3.org/2000/svg" xmlns:xlink="http://www.w3.org/1999/xlink" width="500" zoomAndPan="magnify" viewBox="0 0 375 374.999991" height="500" preserveAspectRatio="xMidYMid meet" version="1.0"><defs><clipPath id="id1"><path d="M 130 74.273438 L 245 74.273438 L 245 291.023438 L 130 291.023438 Z M 130 74.273438 " clip-rule="nonzero"/></clipPath></defs><path fill="rgb(10.198975%, 9.01947%, 10.5896%)" d="M 187.457031 27.664062 C 101.921875 27.664062 32.582031 97.003906 32.582031 182.539062 C 32.582031 268.074219 101.921875 337.414062 187.457031 337.414062 C 272.992188 337.414062 342.332031 268.074219 342.332031 182.539062 C 342.332031 97.003906 272.992188 27.664062 187.457031 27.664062 " fill-opacity="1" fill-rule="nonzero"/><g clip-path="url(#id1)"><path fill="rgb(100%, 100%, 100%)" d="M 244.742188 150.132812 L 206.527344 150.132812 L 206.527344 128.460938 C 206.527344 117.273438 207.4375 110.230469 223.472656 110.230469 L 243.726562 110.230469 L 243.726562 75.765625 C 233.871094 74.75 223.960938 74.25 214.039062 74.273438 C 184.625 74.273438 163.160156 92.230469 163.160156 125.195312 L 163.160156 150.132812 L 130.636719 150.132812 L 130.636719 193.484375 L 163.160156 193.472656 L 163.160156 291.023438 L 206.527344 291.023438 L 206.527344 193.453125 L 239.769531 193.441406 Z M 244.742188 150.132812 " fill-opacity="1" fill-rule="nonzero"/></g></svg>