<svg xmlns="http://www.w3.org/2000/svg" xmlns:xlink="http://www.w3.org/1999/xlink" width="500" zoomAndPan="magnify" viewBox="0 0 375 374.999991" height="500" preserveAspectRatio="xMidYMid meet" version="1.0"><defs><clipPath id="id1"><path d="M 84.171875 79.253906 L 290.828125 79.253906 L 290.828125 268.339844 L 84.171875 268.339844 Z M 84.171875 79.253906 " clip-rule="nonzero"/></clipPath></defs><path fill="rgb(10.198975%, 9.01947%, 10.5896%)" d="M 187.574219 27.664062 C 101.972656 27.664062 32.582031 97.058594 32.582031 182.65625 C 32.582031 268.253906 101.972656 337.648438 187.574219 337.648438 C 273.171875 337.648438 342.5625 268.253906 342.5625 182.65625 C 342.5625 97.058594 273.171875 27.664062 187.574219 27.664062 " fill-opacity="1" fill-rule="nonzero"/><g clip-path="url(#id1)"><path fill="rgb(100%, 100%, 100%)" d="M 116.933594 79.253906 C 108.878906 79.253906 101.769531 84.679688 99.625 92.46875 L 84.234375 148.429688 L 84.234375 149.035156 C 84.234375 165.144531 97.351562 178.300781 113.417969 178.300781 C 123.804688 178.300781 132.929688 172.785156 138.101562 164.546875 C 143.261719 172.796875 152.394531 178.300781 162.804688 178.300781 C 173.21875 178.300781 182.351562 172.796875 187.507812 164.546875 C 192.683594 172.785156 201.808594 178.300781 212.195312 178.300781 C 222.582031 178.300781 231.714844 172.78125 236.886719 164.539062 C 242.0625 172.78125 251.191406 178.300781 261.582031 178.300781 C 277.648438 178.300781 290.765625 165.144531 290.765625 149.035156 L 290.765625 148.429688 L 275.367188 92.46875 C 273.222656 84.679688 266.117188 79.253906 258.058594 79.253906 Z M 116.933594 88.257812 L 141.933594 88.257812 L 134.507812 142.28125 L 95.238281 142.28125 L 108.28125 94.871094 C 109.359375 90.945312 112.878906 88.257812 116.933594 88.257812 Z M 191.988281 88.257812 L 223.996094 88.257812 L 231.425781 142.28125 L 191.988281 142.28125 Z M 142.601562 142.28125 L 183.011719 142.28125 L 183.011719 149.035156 C 183.011719 149.796875 183.066406 150.539062 183.125 151.285156 L 142.601562 151.285156 Z M 240.492188 142.28125 L 279.761719 142.28125 L 281.714844 149.394531 C 281.703125 150.042969 281.566406 150.65625 281.496094 151.285156 L 241.605469 151.285156 C 241.523438 150.539062 241.378906 149.808594 241.378906 149.035156 L 241.378906 148.726562 Z M 93.503906 151.285156 L 133.394531 151.285156 C 132.273438 161.445312 123.863281 169.296875 113.417969 169.296875 C 102.980469 169.296875 94.625 161.4375 93.503906 151.285156 Z M 192.4375 151.285156 L 231.949219 151.285156 C 230.796875 161.40625 222.609375 169.296875 212.195312 169.296875 C 201.777344 169.296875 193.59375 161.40625 192.4375 151.285156 Z M 138.113281 178.183594 C 131.453125 183.863281 122.84375 187.304688 113.417969 187.304688 C 105.988281 187.304688 99.078125 185.140625 93.214844 181.457031 L 93.214844 254.835938 C 93.214844 262.28125 99.257812 268.339844 106.683594 268.339844 L 268.316406 268.339844 C 275.742188 268.339844 281.785156 262.28125 281.785156 254.835938 L 281.785156 181.457031 C 275.921875 185.140625 269.011719 187.304688 261.582031 187.304688 C 252.15625 187.304688 243.546875 183.863281 236.886719 178.183594 C 230.230469 183.863281 221.617188 187.304688 212.195312 187.304688 C 202.769531 187.304688 194.160156 183.863281 187.5 178.183594 C 180.839844 183.863281 172.230469 187.304688 162.804688 187.304688 C 153.382812 187.304688 144.769531 183.863281 138.113281 178.183594 Z M 234.644531 191.804688 C 243.828125 191.804688 252.03125 196.09375 257.382812 202.769531 L 250.953125 209.214844 C 247.28125 204.140625 241.359375 200.808594 234.644531 200.808594 C 223.503906 200.808594 214.4375 209.898438 214.4375 221.070312 C 214.4375 232.238281 223.503906 241.328125 234.644531 241.328125 C 243.410156 241.328125 250.816406 235.664062 253.609375 227.824219 L 236.886719 227.824219 L 236.886719 218.816406 L 263.710938 218.816406 C 263.765625 219.566406 263.828125 220.308594 263.828125 221.070312 C 263.828125 237.203125 250.734375 250.332031 234.644531 250.332031 C 218.550781 250.332031 205.460938 237.203125 205.460938 221.070312 C 205.460938 204.933594 218.550781 191.804688 234.644531 191.804688 Z M 234.644531 191.804688 " fill-opacity="1" fill-rule="nonzero"/></g></svg>