<svg xmlns="http://www.w3.org/2000/svg" xmlns:xlink="http://www.w3.org/1999/xlink" width="500" zoomAndPan="magnify" viewBox="0 0 375 374.999991" height="500" preserveAspectRatio="xMidYMid meet" version="1.0"><defs><clipPath id="id1"><path d="M 87.4375 82.519531 L 287.6875 82.519531 L 287.6875 282.769531 L 87.4375 282.769531 Z M 87.4375 82.519531 " clip-rule="nonzero"/></clipPath></defs><path fill="rgb(10.198975%, 9.01947%, 10.5896%)" d="M 187.457031 27.664062 C 101.921875 27.664062 32.582031 97.003906 32.582031 182.539062 C 32.582031 268.074219 101.921875 337.414062 187.457031 337.414062 C 272.992188 337.414062 342.332031 268.074219 342.332031 182.539062 C 342.332031 97.003906 272.992188 27.664062 187.457031 27.664062 " fill-opacity="1" fill-rule="nonzero"/><g clip-path="url(#id1)"><path fill="rgb(100%, 100%, 100%)" d="M 143.0625 82.519531 C 112.390625 82.519531 87.4375 107.472656 87.4375 138.144531 L 87.4375 227.144531 C 87.4375 257.816406 112.390625 282.769531 143.0625 282.769531 L 232.0625 282.769531 C 262.734375 282.769531 287.6875 257.816406 287.6875 227.144531 L 287.6875 138.144531 C 287.6875 107.472656 262.734375 82.519531 232.0625 82.519531 Z M 143.0625 104.769531 L 232.0625 104.769531 C 250.460938 104.769531 265.4375 119.742188 265.4375 138.144531 L 265.4375 227.144531 C 265.4375 245.546875 250.460938 260.519531 232.0625 260.519531 L 143.0625 260.519531 C 124.660156 260.519531 109.6875 245.546875 109.6875 227.144531 L 109.6875 138.144531 C 109.6875 119.742188 124.660156 104.769531 143.0625 104.769531 Z M 243.1875 115.894531 C 242.457031 115.894531 241.734375 115.964844 241.015625 116.109375 C 240.300781 116.25 239.605469 116.460938 238.929688 116.742188 C 238.253906 117.019531 237.613281 117.363281 237.007812 117.769531 C 236.398438 118.175781 235.835938 118.636719 235.320312 119.152344 C 234.804688 119.667969 234.34375 120.230469 233.9375 120.839844 C 233.53125 121.445312 233.1875 122.085938 232.910156 122.761719 C 232.628906 123.4375 232.417969 124.132812 232.277344 124.847656 C 232.132812 125.566406 232.0625 126.289062 232.0625 127.019531 C 232.0625 127.75 232.132812 128.472656 232.277344 129.191406 C 232.417969 129.90625 232.628906 130.601562 232.910156 131.277344 C 233.1875 131.953125 233.53125 132.59375 233.9375 133.199219 C 234.34375 133.808594 234.804688 134.371094 235.320312 134.886719 C 235.835938 135.402344 236.398438 135.863281 237.007812 136.269531 C 237.613281 136.675781 238.253906 137.019531 238.929688 137.296875 C 239.605469 137.578125 240.300781 137.789062 241.015625 137.929688 C 241.734375 138.074219 242.457031 138.144531 243.1875 138.144531 C 243.917969 138.144531 244.640625 138.074219 245.355469 137.929688 C 246.074219 137.789062 246.769531 137.578125 247.445312 137.296875 C 248.117188 137.019531 248.761719 136.675781 249.367188 136.269531 C 249.976562 135.863281 250.535156 135.402344 251.054688 134.886719 C 251.570312 134.371094 252.03125 133.808594 252.4375 133.199219 C 252.84375 132.59375 253.183594 131.953125 253.464844 131.277344 C 253.746094 130.601562 253.957031 129.90625 254.097656 129.191406 C 254.242188 128.472656 254.3125 127.75 254.3125 127.019531 C 254.3125 126.289062 254.242188 125.566406 254.097656 124.847656 C 253.957031 124.132812 253.746094 123.4375 253.464844 122.761719 C 253.183594 122.085938 252.84375 121.445312 252.4375 120.839844 C 252.03125 120.230469 251.570312 119.667969 251.054688 119.152344 C 250.535156 118.636719 249.976562 118.175781 249.367188 117.769531 C 248.761719 117.363281 248.117188 117.019531 247.445312 116.742188 C 246.769531 116.460938 246.074219 116.25 245.355469 116.109375 C 244.640625 115.964844 243.917969 115.894531 243.1875 115.894531 Z M 187.5625 127.019531 C 156.890625 127.019531 131.9375 151.972656 131.9375 182.644531 C 131.9375 213.316406 156.890625 238.269531 187.5625 238.269531 C 218.234375 238.269531 243.1875 213.316406 243.1875 182.644531 C 243.1875 151.972656 218.234375 127.019531 187.5625 127.019531 Z M 187.5625 149.269531 C 205.960938 149.269531 220.9375 164.242188 220.9375 182.644531 C 220.9375 201.046875 205.960938 216.019531 187.5625 216.019531 C 169.160156 216.019531 154.1875 201.046875 154.1875 182.644531 C 154.1875 164.242188 169.160156 149.269531 187.5625 149.269531 Z M 187.5625 149.269531 " fill-opacity="1" fill-rule="nonzero"/></g></svg>