<svg xmlns="http://www.w3.org/2000/svg" xmlns:xlink="http://www.w3.org/1999/xlink" width="500" zoomAndPan="magnify" viewBox="0 0 375 374.999991" height="500" preserveAspectRatio="xMidYMid meet" version="1.0"><defs><clipPath id="id1"><path d="M 95.269531 83.457031 L 291.769531 83.457031 L 291.769531 279.957031 L 95.269531 279.957031 Z M 95.269531 83.457031 " clip-rule="nonzero"/></clipPath></defs><path fill="rgb(10.198975%, 9.01947%, 10.5896%)" d="M 187.457031 27.664062 C 101.921875 27.664062 32.582031 97.003906 32.582031 182.539062 C 32.582031 268.074219 101.921875 337.414062 187.457031 337.414062 C 272.992188 337.414062 342.332031 268.074219 342.332031 182.539062 C 342.332031 97.003906 272.992188 27.664062 187.457031 27.664062 " fill-opacity="1" fill-rule="nonzero"/><g clip-path="url(#id1)"><path fill="rgb(100%, 100%, 100%)" d="M 121.839844 83.457031 C 107.253906 83.457031 95.269531 95.445312 95.269531 110.027344 L 95.269531 253.445312 C 95.269531 267.972656 107.253906 279.957031 121.839844 279.957031 L 265.257812 279.957031 C 279.78125 279.957031 291.769531 267.972656 291.769531 253.445312 L 291.769531 110.027344 C 291.769531 95.445312 279.78125 83.457031 265.257812 83.457031 Z M 121.839844 98.574219 L 265.257812 98.574219 C 271.632812 98.574219 276.652344 103.59375 276.652344 110.027344 L 276.652344 253.445312 C 276.652344 259.824219 271.632812 264.84375 265.257812 264.84375 L 121.839844 264.84375 C 115.402344 264.84375 110.382812 259.824219 110.382812 253.445312 L 110.382812 110.027344 C 110.382812 103.59375 115.402344 98.574219 121.839844 98.574219 Z M 140.613281 113.6875 C 132.289062 113.6875 125.5 120.480469 125.5 128.804688 C 125.5 137.128906 132.289062 143.917969 140.613281 143.917969 C 148.941406 143.917969 155.730469 137.128906 155.730469 128.804688 C 155.730469 120.480469 148.941406 113.6875 140.613281 113.6875 Z M 125.5 159.035156 L 125.5 249.726562 L 155.730469 249.726562 L 155.730469 159.035156 Z M 170.84375 159.035156 L 170.84375 249.726562 L 201.074219 249.726562 L 201.074219 209.222656 C 201.074219 196.644531 202.257812 185.367188 217.371094 185.367188 C 232.25 185.367188 231.304688 198.890625 231.304688 210.050781 L 231.304688 249.726562 L 261.539062 249.726562 L 261.539062 204.972656 C 261.539062 178.992188 256.105469 159.035156 226.640625 159.035156 C 212.472656 159.035156 205.328125 164.703125 201.429688 172.261719 L 201.074219 172.261719 L 201.074219 159.035156 Z M 170.84375 159.035156 " fill-opacity="1" fill-rule="nonzero"/></g></svg>