<svg xmlns="http://www.w3.org/2000/svg" xmlns:xlink="http://www.w3.org/1999/xlink" width="500" zoomAndPan="magnify" viewBox="0 0 375 374.999991" height="500" preserveAspectRatio="xMidYMid meet" version="1.0"><defs><clipPath id="id1"><path d="M 83.265625 78.351562 L 291.765625 78.351562 L 291.765625 286.851562 L 83.265625 286.851562 Z M 83.265625 78.351562 " clip-rule="nonzero"/></clipPath></defs><path fill="rgb(10.198975%, 9.01947%, 10.5896%)" d="M 187.457031 27.664062 C 101.921875 27.664062 32.582031 97.003906 32.582031 182.539062 C 32.582031 268.074219 101.921875 337.414062 187.457031 337.414062 C 272.992188 337.414062 342.332031 268.074219 342.332031 182.539062 C 342.332031 97.003906 272.992188 27.664062 187.457031 27.664062 " fill-opacity="1" fill-rule="nonzero"/><g clip-path="url(#id1)"><path fill="rgb(100%, 100%, 100%)" d="M 187.515625 78.351562 C 129.941406 78.351562 83.265625 125.023438 83.265625 182.601562 C 83.265625 240.175781 129.941406 286.851562 187.515625 286.851562 C 245.09375 286.851562 291.765625 240.175781 291.765625 182.601562 C 291.765625 125.023438 245.09375 78.351562 187.515625 78.351562 Z M 187.515625 99.199219 C 233.574219 99.199219 270.917969 136.542969 270.917969 182.601562 C 270.917969 228.65625 233.574219 266 187.515625 266 C 179.847656 266 172.457031 264.882812 165.40625 262.945312 C 167.625 258.476562 169.613281 253.765625 170.699219 249.589844 C 171.898438 245 176.808594 226.296875 176.808594 226.296875 C 179.996094 232.382812 189.320312 237.554688 199.246094 237.554688 C 228.78125 237.554688 250.066406 210.390625 250.066406 176.632812 C 250.066406 144.265625 223.660156 120.050781 189.675781 120.050781 C 147.402344 120.050781 124.96875 148.421875 124.96875 179.320312 C 124.96875 193.6875 132.613281 211.574219 144.839844 217.273438 C 146.695312 218.140625 147.691406 217.765625 148.117188 215.972656 C 148.453125 214.605469 150.105469 207.949219 150.847656 204.855469 C 151.085938 203.875 150.976562 203.015625 150.175781 202.046875 C 146.128906 197.136719 142.886719 188.121094 142.886719 179.707031 C 142.886719 158.097656 159.242188 137.195312 187.109375 137.195312 C 211.171875 137.195312 228.015625 153.59375 228.015625 177.042969 C 228.015625 203.53125 214.640625 221.878906 197.230469 221.878906 C 187.617188 221.878906 180.398438 213.941406 182.710938 204.183594 C 185.472656 192.539062 190.835938 179.964844 190.835938 171.5625 C 190.835938 164.046875 186.816406 157.78125 178.457031 157.78125 C 168.625 157.78125 160.722656 167.9375 160.722656 181.5625 C 160.722656 190.234375 163.652344 196.097656 163.652344 196.097656 C 163.652344 196.097656 153.953125 237.140625 152.171875 244.785156 C 151.285156 248.554688 150.992188 253.023438 150.96875 257.488281 C 123.253906 243.929688 104.117188 215.527344 104.117188 182.601562 C 104.117188 136.542969 141.460938 99.199219 187.515625 99.199219 Z M 187.515625 99.199219 " fill-opacity="1" fill-rule="nonzero"/></g></svg>