<svg xmlns="http://www.w3.org/2000/svg" xmlns:xlink="http://www.w3.org/1999/xlink" width="500" zoomAndPan="magnify" viewBox="0 0 375 374.999991" height="500" preserveAspectRatio="xMidYMid meet" version="1.0"><defs><clipPath id="id1"><path d="M 84 85.433594 L 291 85.433594 L 291 279.683594 L 84 279.683594 Z M 84 85.433594 " clip-rule="nonzero"/></clipPath></defs><path fill="rgb(10.198975%, 9.01947%, 10.5896%)" d="M 187.457031 27.664062 C 101.921875 27.664062 32.582031 97.003906 32.582031 182.539062 C 32.582031 268.074219 101.921875 337.414062 187.457031 337.414062 C 272.992188 337.414062 342.332031 268.074219 342.332031 182.539062 C 342.332031 97.003906 272.992188 27.664062 187.457031 27.664062 " fill-opacity="1" fill-rule="nonzero"/><g clip-path="url(#id1)"><path fill="rgb(100%, 100%, 100%)" d="M 284.65625 227.546875 C 258.652344 223.253906 246.769531 196.285156 246.382812 195.40625 C 246.332031 195.25 246.207031 194.96875 246.136719 194.8125 C 245.351562 193.234375 244.5625 191.007812 245.230469 189.429688 C 246.367188 186.734375 251.773438 185.015625 255.011719 183.980469 C 256.148438 183.613281 257.234375 183.28125 258.074219 182.949219 C 265.933594 179.828125 269.851562 175.761719 269.765625 170.820312 C 269.695312 166.84375 266.648438 163.199219 262.167969 161.621094 C 260.613281 160.953125 258.828125 160.621094 257.023438 160.621094 C 255.800781 160.621094 253.945312 160.796875 252.160156 161.621094 C 249.167969 163.023438 246.542969 163.777344 244.667969 163.863281 C 244.265625 163.847656 243.914062 163.8125 243.617188 163.757812 L 243.8125 160.675781 C 244.6875 146.726562 245.789062 129.339844 241.082031 118.773438 C 227.183594 87.632812 197.75 85.214844 189.050781 85.214844 L 185.097656 85.25 C 176.417969 85.25 147.03125 87.667969 133.171875 118.792969 C 128.464844 129.359375 129.550781 146.726562 130.441406 160.691406 L 130.476562 161.21875 C 130.53125 162.078125 130.582031 162.933594 130.632812 163.757812 C 128.691406 164.109375 124.894531 163.460938 120.957031 161.621094 C 115.601562 159.113281 105.957031 162.425781 104.628906 169.4375 C 104.035156 172.539062 104.75 178.425781 116.160156 182.929688 C 117.019531 183.28125 118.085938 183.613281 119.242188 183.980469 C 122.460938 185.015625 127.871094 186.714844 129.007812 189.429688 C 129.671875 191.007812 128.882812 193.234375 127.957031 195.144531 C 127.46875 196.285156 115.652344 223.253906 89.597656 227.546875 C 86.269531 228.089844 83.90625 231.035156 84.082031 234.433594 C 84.136719 235.328125 84.363281 236.21875 84.730469 237.097656 C 87.09375 242.652344 95.6875 246.472656 111.714844 249.082031 C 111.996094 250.03125 112.3125 251.429688 112.488281 252.203125 C 112.820312 253.796875 113.1875 255.410156 113.675781 257.089844 C 114.148438 258.6875 115.777344 262.382812 120.851562 262.382812 C 122.390625 262.382812 124.070312 262.050781 125.875 261.699219 C 128.535156 261.175781 131.859375 260.527344 136.128906 260.527344 C 138.511719 260.527344 140.960938 260.738281 143.425781 261.140625 C 147.976562 261.894531 152.089844 264.820312 156.867188 268.183594 C 164.324219 273.476562 172.777344 279.453125 185.882812 279.453125 C 186.234375 279.453125 186.585938 279.433594 186.917969 279.417969 C 187.390625 279.433594 187.878906 279.453125 188.367188 279.453125 C 201.476562 279.453125 209.929688 273.460938 217.402344 268.183594 C 221.953125 264.941406 226.257812 261.910156 230.824219 261.140625 C 233.292969 260.738281 235.742188 260.527344 238.125 260.527344 C 242.234375 260.527344 245.492188 261.050781 248.394531 261.628906 C 250.460938 262.035156 252.105469 262.226562 253.628906 262.226562 C 257.023438 262.226562 259.632812 260.28125 260.578125 257.023438 C 261.066406 255.375 261.417969 253.78125 261.765625 252.167969 C 261.90625 251.570312 262.238281 250.066406 262.535156 249.066406 C 278.566406 246.453125 287.160156 242.632812 289.503906 237.132812 C 289.890625 236.253906 290.101562 235.34375 290.171875 234.398438 C 290.34375 231.050781 287.984375 228.105469 284.65625 227.546875 Z M 284.65625 227.546875 " fill-opacity="1" fill-rule="nonzero"/></g></svg>