<svg xmlns="http://www.w3.org/2000/svg" xmlns:xlink="http://www.w3.org/1999/xlink" width="500" zoomAndPan="magnify" viewBox="0 0 375 374.999991" height="500" preserveAspectRatio="xMidYMid meet" version="1.0"><defs><clipPath id="id1"><path d="M 88.5 88.5 L 286.5 88.5 L 286.5 286.5 L 88.5 286.5 Z M 88.5 88.5 " clip-rule="nonzero"/></clipPath></defs><path fill="rgb(10.198975%, 9.01947%, 10.5896%)" d="M 187.457031 27.664062 C 101.921875 27.664062 32.582031 97.003906 32.582031 182.539062 C 32.582031 268.074219 101.921875 337.414062 187.457031 337.414062 C 272.992188 337.414062 342.332031 268.074219 342.332031 182.539062 C 342.332031 97.003906 272.992188 27.664062 187.457031 27.664062 " fill-opacity="1" fill-rule="nonzero"/><g clip-path="url(#id1)"><path fill="rgb(100%, 100%, 100%)" d="M 112.070312 88.5 C 99.101562 88.5 88.5 99.101562 88.5 112.070312 L 88.5 262.925781 C 88.5 275.894531 99.101562 286.5 112.070312 286.5 L 262.925781 286.5 C 275.894531 286.5 286.5 275.894531 286.5 262.925781 L 286.5 112.070312 C 286.5 99.101562 275.894531 88.5 262.925781 88.5 Z M 112.070312 97.925781 L 262.925781 97.925781 C 270.808594 97.925781 277.070312 104.191406 277.070312 112.070312 L 277.070312 262.925781 C 277.070312 270.808594 270.808594 277.070312 262.925781 277.070312 L 112.070312 277.070312 C 104.191406 277.070312 97.925781 270.808594 97.925781 262.925781 L 97.925781 112.070312 C 97.925781 104.191406 104.191406 97.925781 112.070312 97.925781 Z M 192.414062 116.785156 C 192.105469 116.785156 191.800781 116.8125 191.496094 116.875 C 191.195312 116.933594 190.898438 117.023438 190.613281 117.140625 C 190.328125 117.261719 190.054688 117.40625 189.800781 117.578125 C 189.542969 117.75 189.304688 117.941406 189.085938 118.160156 C 188.867188 118.378906 188.671875 118.617188 188.5 118.875 C 188.328125 119.132812 188.179688 119.402344 188.0625 119.6875 C 187.945312 119.972656 187.855469 120.269531 187.792969 120.570312 C 187.730469 120.875 187.703125 121.179688 187.699219 121.488281 C 187.699219 121.488281 187.648438 144.472656 187.601562 167.507812 C 187.574219 179.027344 187.542969 190.558594 187.527344 199.238281 C 187.507812 207.917969 187.5 213.410156 187.5 213.867188 C 187.5 222.425781 179.726562 229.421875 170.871094 229.421875 C 162.082031 229.421875 155.070312 222.398438 155.070312 213.609375 C 155.070312 204.824219 162.082031 197.8125 170.871094 197.8125 C 171.167969 197.8125 171.765625 197.910156 172.792969 198.03125 C 173.125 198.070312 173.457031 198.074219 173.789062 198.046875 C 174.121094 198.015625 174.445312 197.949219 174.765625 197.851562 C 175.082031 197.75 175.386719 197.617188 175.675781 197.453125 C 175.96875 197.289062 176.238281 197.097656 176.484375 196.875 C 176.734375 196.652344 176.957031 196.410156 177.15625 196.140625 C 177.351562 195.871094 177.519531 195.585938 177.65625 195.28125 C 177.792969 194.976562 177.894531 194.660156 177.964844 194.335938 C 178.035156 194.007812 178.070312 193.679688 178.070312 193.34375 L 178.070312 173.539062 C 178.070312 172.941406 177.960938 172.363281 177.738281 171.804688 C 177.519531 171.246094 177.203125 170.75 176.792969 170.3125 C 176.382812 169.875 175.90625 169.527344 175.363281 169.273438 C 174.820312 169.019531 174.25 168.871094 173.648438 168.835938 C 172.914062 168.789062 171.992188 168.695312 170.871094 168.695312 C 146.121094 168.695312 125.953125 188.863281 125.953125 213.609375 C 125.953125 238.359375 146.121094 258.527344 170.871094 258.527344 C 195.617188 258.527344 215.785156 238.359375 215.785156 213.609375 L 215.785156 170.953125 C 222.640625 176.4375 231.1875 179.910156 240.625 179.910156 C 241.914062 179.910156 243.136719 179.835938 244.308594 179.726562 C 244.894531 179.671875 245.449219 179.515625 245.976562 179.253906 C 246.503906 178.992188 246.964844 178.644531 247.359375 178.210938 C 247.753906 177.773438 248.058594 177.285156 248.273438 176.734375 C 248.484375 176.1875 248.589844 175.621094 248.589844 175.03125 L 248.589844 153.015625 C 248.589844 152.421875 248.480469 151.84375 248.265625 151.289062 C 248.046875 150.734375 247.734375 150.238281 247.328125 149.804688 C 246.921875 149.367188 246.453125 149.019531 245.914062 148.761719 C 245.378906 148.503906 244.8125 148.355469 244.21875 148.3125 C 229.390625 147.246094 217.574219 135.699219 216.03125 121.011719 C 215.972656 120.429688 215.808594 119.882812 215.546875 119.363281 C 215.28125 118.84375 214.933594 118.386719 214.5 117.996094 C 214.066406 117.605469 213.578125 117.308594 213.035156 117.097656 C 212.492188 116.890625 211.929688 116.785156 211.347656 116.785156 Z M 197.121094 126.210938 L 207.875 126.210938 C 211.300781 141.761719 223.453125 153.625 239.164062 156.597656 L 239.164062 170.105469 C 229.078125 169.59375 220.222656 164.5625 215.011719 156.632812 C 214.730469 156.210938 214.394531 155.839844 213.996094 155.527344 C 213.597656 155.210938 213.160156 154.964844 212.683594 154.792969 C 212.207031 154.621094 211.714844 154.523438 211.207031 154.511719 C 210.699219 154.496094 210.203125 154.5625 209.714844 154.707031 C 209.230469 154.851562 208.777344 155.070312 208.363281 155.363281 C 207.945312 155.65625 207.589844 156.003906 207.285156 156.410156 C 206.984375 156.820312 206.75 157.265625 206.59375 157.746094 C 206.433594 158.230469 206.355469 158.722656 206.355469 159.230469 L 206.355469 213.609375 C 206.355469 233.261719 190.523438 249.097656 170.871094 249.097656 C 151.21875 249.097656 135.382812 233.261719 135.382812 213.609375 C 135.382812 194.75 150.09375 179.78125 168.640625 178.578125 L 168.640625 188.832031 C 155.847656 190.023438 145.640625 200.519531 145.640625 213.609375 C 145.640625 227.492188 156.988281 238.847656 170.871094 238.847656 C 184.679688 238.847656 196.925781 227.976562 196.925781 213.867188 C 196.925781 214.097656 196.9375 207.9375 196.953125 199.257812 C 196.972656 190.574219 197.003906 179.046875 197.027344 167.527344 C 197.074219 146.847656 197.113281 130.214844 197.121094 126.210938 Z M 197.121094 126.210938 " fill-opacity="1" fill-rule="nonzero"/></g></svg>