<svg xmlns="http://www.w3.org/2000/svg" xmlns:xlink="http://www.w3.org/1999/xlink" width="500" zoomAndPan="magnify" viewBox="0 0 375 374.999991" height="500" preserveAspectRatio="xMidYMid meet" version="1.0"><defs><clipPath id="id1"><path d="M 91 101.488281 L 298.972656 101.488281 L 298.972656 273.238281 L 91 273.238281 Z M 91 101.488281 " clip-rule="nonzero"/></clipPath></defs><path fill="rgb(10.198975%, 9.01947%, 10.5896%)" d="M 187.457031 27.664062 C 101.921875 27.664062 32.582031 97.003906 32.582031 182.539062 C 32.582031 268.074219 101.921875 337.414062 187.457031 337.414062 C 272.992188 337.414062 342.332031 268.074219 342.332031 182.539062 C 342.332031 97.003906 272.992188 27.664062 187.457031 27.664062 " fill-opacity="1" fill-rule="nonzero"/><g clip-path="url(#id1)"><path fill="rgb(100%, 100%, 100%)" d="M 270.59375 145.15625 C 269.652344 146.023438 269.152344 147.273438 269.242188 148.554688 C 269.253906 148.78125 270.671875 171.699219 260.457031 197.234375 C 246.8125 231.355469 219.910156 253.390625 180.589844 262.707031 C 180.167969 262.796875 143.789062 270.332031 111.855469 255.144531 C 125.507812 254.570312 144.414062 250.726562 157.71875 235.792969 C 158.828125 234.546875 159.09375 232.621094 158.40625 231.101562 C 157.726562 229.582031 156.207031 228.464844 154.542969 228.464844 C 154.535156 228.464844 154.527344 228.464844 154.511719 228.464844 C 153.394531 228.464844 134.136719 228.320312 124.910156 209.722656 C 128.640625 209.882812 133.101562 209.660156 136.695312 208.003906 C 138.355469 207.242188 139.332031 205.535156 139.128906 203.726562 C 138.921875 201.914062 137.582031 200.453125 135.796875 200.078125 C 134.761719 199.859375 112.460938 194.882812 109.023438 170.652344 C 112.449219 172.082031 116.71875 173.1875 120.96875 172.550781 C 122.597656 172.308594 123.9375 171.132812 124.398438 169.550781 C 124.859375 167.96875 124.355469 166.257812 123.109375 165.175781 C 122.144531 164.335938 101.117188 145.632812 110.746094 121.46875 C 122.144531 133.34375 154.652344 162.90625 194.070312 160.644531 C 195.324219 160.574219 196.488281 159.941406 197.234375 158.925781 C 197.980469 157.910156 198.234375 156.617188 197.925781 155.394531 C 197.183594 152.433594 196.804688 149.378906 196.804688 146.320312 C 196.804688 126.261719 212.859375 109.945312 232.59375 109.945312 C 242.246094 109.945312 251.296875 113.796875 258.082031 120.792969 C 258.863281 121.597656 259.929688 122.058594 261.046875 122.078125 C 264.957031 122.117188 271.394531 121.695312 278.667969 118.988281 C 276.5 121.527344 273.464844 124.503906 269.226562 127.835938 C 267.757812 128.988281 267.21875 130.964844 267.898438 132.703125 C 268.578125 134.441406 270.347656 135.542969 272.175781 135.378906 C 273.03125 135.308594 277.175781 134.941406 282.03125 133.957031 C 279.25 136.917969 275.539062 140.609375 270.59375 145.15625 Z M 296.554688 121.535156 C 295.054688 120.515625 293.070312 120.570312 291.625 121.664062 C 290.164062 122.773438 287.792969 123.726562 285.09375 124.503906 C 292.480469 115.882812 292.632812 110.117188 292.546875 108.761719 C 292.449219 107.222656 291.519531 105.859375 290.121094 105.203125 C 288.722656 104.550781 287.082031 104.707031 285.835938 105.609375 C 276.976562 112.050781 268.152344 113.453125 262.847656 113.609375 C 254.617188 105.78125 243.941406 101.488281 232.59375 101.488281 C 208.195312 101.488281 188.347656 121.601562 188.347656 146.320312 C 188.347656 148.320312 188.476562 150.316406 188.738281 152.296875 C 147.085938 151.589844 113.28125 111.722656 112.929688 111.300781 C 112.046875 110.242188 110.703125 109.667969 109.316406 109.796875 C 107.941406 109.917969 106.707031 110.703125 106.019531 111.898438 C 94.277344 132.269531 101.449219 150.242188 108.652344 161.011719 C 107.910156 160.570312 107.300781 160.164062 106.882812 159.855469 C 105.609375 158.910156 103.914062 158.75 102.488281 159.449219 C 101.0625 160.152344 100.152344 161.589844 100.125 163.179688 C 99.808594 182.710938 108.9375 194.140625 117.804688 200.617188 C 116.847656 200.75 115.945312 201.207031 115.269531 201.945312 C 114.253906 203.046875 113.894531 204.605469 114.332031 206.039062 C 120.484375 226.171875 135.398438 233.304688 145.25 235.828125 C 125.324219 250.859375 96.449219 245.953125 96.128906 245.894531 C 94.214844 245.558594 92.296875 246.566406 91.507812 248.355469 C 90.726562 250.140625 91.261719 252.238281 92.816406 253.417969 C 114.054688 269.628906 139.453125 273.21875 157.800781 273.21875 C 171.671875 273.21875 181.507812 271.164062 182.457031 270.960938 C 275 249.027344 277.933594 164.476562 277.742188 150.066406 C 295.105469 133.902344 297.835938 127.699219 298.261719 126.15625 C 298.742188 124.410156 298.054688 122.550781 296.554688 121.535156 " fill-opacity="1" fill-rule="nonzero"/></g></svg>