<svg xmlns="http://www.w3.org/2000/svg" xmlns:xlink="http://www.w3.org/1999/xlink" width="500" zoomAndPan="magnify" viewBox="0 0 375 374.999991" height="500" preserveAspectRatio="xMidYMid meet" version="1.0"><defs><clipPath id="id1"><path d="M 90.351562 78.539062 L 291 78.539062 L 291 279.539062 L 90.351562 279.539062 Z M 90.351562 78.539062 " clip-rule="nonzero"/></clipPath></defs><path fill="rgb(10.198975%, 9.01947%, 10.5896%)" d="M 187.457031 27.664062 C 101.921875 27.664062 32.582031 97.003906 32.582031 182.539062 C 32.582031 268.074219 101.921875 337.414062 187.457031 337.414062 C 272.992188 337.414062 342.332031 268.074219 342.332031 182.539062 C 342.332031 97.003906 272.992188 27.664062 187.457031 27.664062 " fill-opacity="1" fill-rule="nonzero"/><g clip-path="url(#id1)"><path fill="rgb(100%, 100%, 100%)" d="M 190.851562 78.539062 C 135.828125 78.539062 91.117188 123.253906 91.117188 178.273438 C 91.117188 198.171875 97.53125 216.394531 107.539062 231.976562 L 90.398438 279.863281 L 143.742188 264.820312 C 157.886719 272.550781 173.589844 278.007812 190.851562 278.007812 C 245.871094 278.007812 290.582031 233.292969 290.582031 178.273438 C 290.582031 123.253906 245.871094 78.539062 190.851562 78.539062 Z M 190.851562 93.882812 C 237.539062 93.882812 275.238281 131.582031 275.238281 178.273438 C 275.238281 224.964844 237.539062 262.664062 190.851562 262.664062 C 174.847656 262.664062 160.042969 258.167969 147.21875 250.4375 L 144.402344 248.699219 L 114.851562 256.96875 L 124.441406 230.359375 L 122.105469 227.121094 C 112.273438 213.277344 106.460938 196.492188 106.460938 178.273438 C 106.460938 131.582031 144.160156 93.882812 190.851562 93.882812 Z M 153.449219 124.570312 C 151.714844 124.570312 148.835938 125.289062 146.378906 128.167969 C 143.980469 130.984375 137.148438 137.878906 137.148438 151.902344 C 137.148438 165.867188 146.617188 179.414062 147.9375 181.332031 C 149.253906 183.25 166.578125 211.957031 193.070312 224.304688 C 199.363281 227.242188 204.277344 228.980469 208.113281 230.296875 C 214.464844 232.457031 220.21875 232.15625 224.773438 231.4375 C 229.867188 230.597656 240.417969 224.542969 242.636719 217.890625 C 244.792969 211.238281 244.851562 205.542969 244.132812 204.34375 C 243.535156 203.148438 241.734375 202.425781 239.097656 201.050781 C 236.460938 199.609375 223.457031 192.71875 221.058594 191.820312 C 218.660156 190.800781 216.863281 190.378906 215.066406 193.199219 C 213.328125 196.074219 208.292969 202.488281 206.734375 204.34375 C 205.175781 206.261719 203.675781 206.503906 201.039062 205.066406 C 198.34375 203.625 189.832031 200.628906 179.761719 190.921875 C 171.910156 183.367188 166.578125 174.078125 165.078125 171.203125 C 163.519531 168.324219 164.898438 166.824219 166.21875 165.449219 C 167.417969 164.128906 168.855469 162.089844 170.171875 160.414062 C 171.492188 158.792969 171.910156 157.535156 172.808594 155.679688 C 173.710938 153.761719 173.289062 152.082031 172.628906 150.703125 C 171.910156 149.265625 166.636719 135.238281 164.480469 129.546875 C 162.320312 124.03125 160.105469 124.75 158.484375 124.691406 C 156.988281 124.570312 155.1875 124.570312 153.449219 124.570312 Z M 153.449219 124.570312 " fill-opacity="1" fill-rule="nonzero"/></g></svg>