<svg xmlns="http://www.w3.org/2000/svg" xmlns:xlink="http://www.w3.org/1999/xlink" width="500" zoomAndPan="magnify" viewBox="0 0 375 374.999991" height="500" preserveAspectRatio="xMidYMid meet" version="1.0"><defs><clipPath id="id1"><path d="M 83.085938 72.671875 L 291.585938 72.671875 L 291.585938 281.171875 L 83.085938 281.171875 Z M 83.085938 72.671875 " clip-rule="nonzero"/></clipPath></defs><path fill="rgb(10.198975%, 9.01947%, 10.5896%)" d="M 187.457031 27.664062 C 101.921875 27.664062 32.582031 97.003906 32.582031 182.539062 C 32.582031 268.074219 101.921875 337.414062 187.457031 337.414062 C 272.992188 337.414062 342.332031 268.074219 342.332031 182.539062 C 342.332031 97.003906 272.992188 27.664062 187.457031 27.664062 " fill-opacity="1" fill-rule="nonzero"/><g clip-path="url(#id1)"><path fill="rgb(10.198975%, 9.01947%, 10.5896%)" d="M 291.585938 252.214844 C 291.585938 268.210938 278.625 281.171875 262.628906 281.171875 L 112.042969 281.171875 C 96.054688 281.171875 83.085938 268.210938 83.085938 252.214844 L 83.085938 101.632812 C 83.085938 85.632812 96.054688 72.671875 112.042969 72.671875 L 262.628906 72.671875 C 278.625 72.671875 291.585938 85.632812 291.585938 101.632812 Z M 291.585938 252.214844 " fill-opacity="1" fill-rule="nonzero"/></g><path fill="rgb(100%, 100%, 100%)" d="M 259.726562 185.597656 C 258.128906 179.90625 253.417969 175.417969 247.4375 173.894531 C 236.601562 171.132812 187.335938 171.132812 187.335938 171.132812 C 187.335938 171.132812 138.070312 171.132812 127.234375 173.898438 C 121.257812 175.421875 116.542969 179.90625 114.945312 185.605469 C 112.042969 195.925781 112.042969 217.464844 112.042969 217.464844 C 112.042969 217.464844 112.042969 239.003906 114.945312 249.328125 C 116.542969 255.023438 121.253906 259.511719 127.234375 261.035156 C 138.070312 263.796875 187.335938 263.796875 187.335938 263.796875 C 187.335938 263.796875 236.59375 263.796875 247.4375 261.027344 C 253.414062 259.507812 258.128906 255.023438 259.726562 249.324219 C 262.628906 239.003906 262.628906 217.464844 262.628906 217.464844 C 262.628906 217.464844 262.628906 195.925781 259.726562 185.597656 Z M 259.726562 185.597656 " fill-opacity="1" fill-rule="nonzero"/><path fill="rgb(10.198975%, 9.01947%, 10.5896%)" d="M 142.929688 252.214844 L 133.28125 252.214844 L 133.28125 192.300781 L 123.628906 192.300781 L 123.628906 182.714844 L 152.585938 182.714844 L 152.585938 192.300781 L 142.929688 192.300781 Z M 181.542969 252.214844 L 172.855469 252.214844 L 171.890625 245.65625 C 168.078125 249.777344 163.542969 252.214844 160.015625 252.214844 C 156.929688 252.214844 154.757812 250.875 153.691406 248.433594 C 153.066406 246.902344 152.585938 244.609375 152.585938 241.164062 L 152.585938 197.195312 L 162.242188 197.195312 L 162.242188 242.121094 C 162.484375 243.507812 163.496094 244.03125 164.75 244.03125 C 166.675781 244.03125 169.769531 241.929688 171.890625 239.148438 L 171.890625 197.195312 L 181.542969 197.195312 Z M 251.042969 227.097656 L 251.042969 211.453125 C 251.042969 206.953125 249.933594 203.703125 247.957031 201.59375 C 245.304688 198.722656 241.488281 197.195312 236.710938 197.195312 C 231.832031 197.195312 228.070312 198.722656 225.316406 201.59375 C 223.246094 203.699219 222.085938 207.144531 222.085938 211.644531 L 222.085938 238.246094 C 222.085938 242.691406 223.390625 245.847656 225.417969 247.910156 C 228.167969 250.777344 231.933594 252.214844 236.953125 252.214844 C 241.921875 252.214844 245.832031 250.730469 248.4375 247.667969 C 249.597656 246.328125 250.367188 244.796875 250.707031 243.121094 C 250.753906 242.355469 251.042969 240.300781 251.042969 237.863281 L 241.390625 237.863281 L 241.390625 241.691406 C 241.390625 243.890625 239.21875 245.710938 236.566406 245.710938 C 233.914062 245.710938 231.742188 243.890625 231.742188 241.691406 L 231.742188 227.097656 Z M 231.742188 208.152344 C 231.742188 205.902344 233.914062 204.132812 236.566406 204.132812 C 239.21875 204.132812 241.390625 205.902344 241.390625 208.152344 L 241.390625 220.445312 L 231.734375 220.445312 L 231.734375 208.152344 Z M 215.039062 202.9375 C 213.832031 199.199219 210.886719 197.140625 207.21875 197.089844 C 202.539062 197.042969 200.605469 199.488281 196.984375 203.703125 L 196.984375 182.714844 L 187.335938 182.714844 L 187.335938 252.214844 L 196.023438 252.214844 L 196.992188 246.226562 C 200.03125 249.960938 203.988281 252.214844 207.21875 252.214844 C 210.886719 252.214844 214.023438 250.296875 215.230469 246.554688 C 215.808594 244.539062 216.242188 242.675781 216.289062 238.453125 L 216.289062 213.292969 C 216.292969 208.550781 215.667969 204.953125 215.039062 202.9375 Z M 206.640625 237.214844 C 206.640625 242.246094 205.480469 243.972656 202.875 243.972656 C 201.378906 243.972656 198.53125 242.964844 196.984375 241.429688 L 196.984375 208.5 C 198.53125 206.964844 201.375 205.480469 202.875 205.480469 C 205.480469 205.480469 206.640625 207.0625 206.640625 212.09375 Z M 206.640625 237.214844 " fill-opacity="1" fill-rule="nonzero"/><path fill="rgb(100%, 100%, 100%)" d="M 135.210938 90.046875 L 145.839844 90.054688 L 152.714844 123.136719 L 153.378906 123.136719 L 159.914062 90.058594 L 170.660156 90.054688 L 158.378906 135.761719 L 158.378906 159.546875 L 147.820312 159.546875 L 147.800781 137.046875 Z M 170.765625 119.480469 C 170.765625 115.589844 172.035156 112.480469 174.570312 110.179688 C 177.101562 107.867188 180.5 106.703125 184.789062 106.699219 C 188.695312 106.699219 191.882812 107.910156 194.371094 110.347656 C 196.859375 112.769531 198.109375 115.90625 198.109375 119.742188 L 198.125 145.71875 C 198.125 150.015625 196.914062 153.398438 194.476562 155.863281 C 192.039062 158.320312 188.691406 159.546875 184.398438 159.546875 C 180.265625 159.546875 176.980469 158.269531 174.484375 155.75 C 172.003906 153.230469 170.777344 149.824219 170.773438 145.554688 L 170.753906 119.476562 Z M 180.472656 146.492188 C 180.472656 147.859375 180.804688 148.941406 181.503906 149.695312 C 182.167969 150.4375 183.121094 150.8125 184.371094 150.8125 C 185.652344 150.8125 186.652344 150.429688 187.40625 149.648438 C 188.152344 148.902344 188.539062 147.832031 188.539062 146.480469 L 188.523438 119.082031 C 188.523438 117.992188 188.125 117.101562 187.359375 116.421875 C 186.601562 115.75 185.59375 115.410156 184.351562 115.410156 C 183.199219 115.410156 182.261719 115.757812 181.539062 116.429688 C 180.820312 117.105469 180.460938 118 180.460938 119.085938 Z M 233.667969 107.421875 L 233.667969 159.546875 L 225.417969 159.546875 L 224.101562 153.175781 C 222.335938 155.25 220.5 156.824219 218.582031 157.898438 C 216.683594 158.972656 214.828125 159.546875 213.035156 159.546875 C 210.808594 159.546875 209.148438 158.78125 208.019531 157.265625 C 206.886719 155.765625 206.332031 153.5 206.332031 150.464844 L 206.308594 107.421875 L 215.882812 107.421875 L 215.90625 146.949219 C 215.90625 148.132812 216.113281 149.007812 216.519531 149.550781 C 216.902344 150.074219 217.582031 150.363281 218.460938 150.363281 C 219.179688 150.363281 220.070312 150.003906 221.125 149.285156 C 222.214844 148.578125 223.199219 147.65625 224.089844 146.558594 L 224.078125 107.421875 Z M 233.667969 107.421875 " fill-opacity="1" fill-rule="nonzero"/></svg>