<svg xmlns="http://www.w3.org/2000/svg" xmlns:xlink="http://www.w3.org/1999/xlink" width="500" zoomAndPan="magnify" viewBox="0 0 375 374.999991" height="500" preserveAspectRatio="xMidYMid meet" version="1.0"><defs><clipPath id="id1"><path d="M 133 215 L 194 215 L 194 289.207031 L 133 289.207031 Z M 133 215 " clip-rule="nonzero"/></clipPath><clipPath id="id2"><path d="M 108.25 172 L 179 172 L 179 230 L 108.25 230 Z M 108.25 172 " clip-rule="nonzero"/></clipPath></defs><path fill="rgb(10.198975%, 9.01947%, 10.5896%)" d="M 187.457031 27.664062 C 101.921875 27.664062 32.582031 97.003906 32.582031 182.539062 C 32.582031 268.074219 101.921875 337.414062 187.457031 337.414062 C 272.992188 337.414062 342.332031 268.074219 342.332031 182.539062 C 342.332031 97.003906 272.992188 27.664062 187.457031 27.664062 " fill-opacity="1" fill-rule="nonzero"/><g clip-path="url(#id1)"><path fill="rgb(100%, 100%, 100%)" d="M 157.636719 283.648438 L 159.625 284.402344 C 167.980469 287.609375 174.273438 289.160156 179.175781 289.160156 C 180.367188 289.160156 181.476562 289.074219 182.519531 288.890625 C 187.429688 287.84375 191.042969 284.816406 192.726562 280.269531 C 192.839844 279.960938 194.515625 243.074219 193.335938 230.5625 L 193.738281 230.5625 C 193.835938 224.503906 190.324219 219.34375 184.613281 217.085938 C 178.457031 214.667969 171.570312 216.140625 167.457031 220.722656 C 135.863281 255.371094 134.835938 257.960938 134.257812 259.488281 C 129.640625 273.117188 147.851562 279.960938 157.636719 283.648438 Z M 177.171875 229.578125 C 177.90625 228.761719 180.636719 229.03125 180.613281 230.367188 C 180.613281 230.402344 180.621094 230.4375 180.621094 230.472656 C 180.644531 247.867188 180.5 273.757812 180.023438 275.960938 C 174.765625 276.890625 149 266.78125 146.828125 263.917969 C 150.207031 259.539062 164.324219 243.671875 177.171875 229.578125 Z M 177.171875 229.578125 " fill-opacity="1" fill-rule="nonzero"/></g><path fill="rgb(100%, 100%, 100%)" d="M 194.753906 165.542969 C 194.324219 157.59375 190.402344 93.28125 189.835938 89.46875 C 189.808594 89.261719 189.765625 89.050781 189.714844 88.839844 C 188.46875 83.941406 184.960938 80.5 179.859375 79.15625 C 168.960938 76.191406 136.832031 85.417969 129.464844 93.535156 C 126.015625 97.15625 124.71875 101.738281 125.839844 106.453125 C 127.636719 113.886719 153.726562 156.839844 164.847656 174.933594 C 176.621094 194.234375 195.753906 187.328125 194.753906 165.542969 Z M 139.0625 102.519531 C 143.152344 98.011719 170.25 90.242188 176.910156 91.9375 C 177.5625 99 181.039062 155.03125 181.652344 166.203125 C 181.863281 170.949219 180.652344 172.941406 180.847656 173.066406 C 180.347656 172.996094 178.40625 171.941406 176.035156 168.054688 C 158.75 139.910156 140 107.980469 138.59375 103.355469 Z M 139.0625 102.519531 " fill-opacity="1" fill-rule="nonzero"/><g clip-path="url(#id2)"><path fill="rgb(100%, 100%, 100%)" d="M 124.984375 173.023438 C 110.890625 172.101562 109.515625 187.53125 108.964844 193.3125 C 108.285156 200.300781 108.238281 206.90625 108.835938 212.875 C 109.175781 216.703125 110.226562 228.339844 122.875 229.09375 C 131.152344 229.09375 165.949219 217.886719 169.113281 216.519531 C 175.035156 213.867188 178.660156 208.242188 178.5625 201.824219 C 178.476562 195.675781 174.914062 190.257812 169.539062 188.027344 C 159.640625 183.851562 132.324219 173.023438 125.027344 173.023438 C 125.007812 173.023438 125 173.023438 124.984375 173.023438 Z M 165.433594 202.019531 C 165.445312 202.753906 165.199219 203.765625 163.972656 204.398438 C 147.152344 210.085938 127.285156 215.929688 122.777344 216.035156 C 122.644531 215.851562 122.214844 215.007812 121.902344 211.628906 C 121.386719 206.453125 121.421875 200.710938 122.023438 194.585938 C 122.664062 187.941406 123.609375 186.425781 124.546875 186.175781 C 127.695312 186.34375 144.796875 191.871094 164.480469 200.183594 C 165.121094 200.449219 165.425781 201.289062 165.433594 202.019531 Z M 165.433594 202.019531 " fill-opacity="1" fill-rule="nonzero"/></g><path fill="rgb(100%, 100%, 100%)" d="M 209.464844 203.425781 C 210.578125 203.425781 211.683594 203.28125 212.757812 202.992188 C 257.113281 191.855469 259.125 190.488281 260.203125 189.75 C 260.238281 189.722656 260.273438 189.699219 260.308594 189.671875 C 265.960938 185.625 265.875 179.753906 265.839844 177.671875 C 265.867188 177.207031 265.832031 176.734375 265.746094 176.269531 C 263.863281 165.660156 248.710938 144.777344 239.496094 140.207031 C 234.671875 137.90625 229.875 138.214844 226.050781 140.972656 C 225.105469 141.628906 222.585938 143.382812 196.214844 178.65625 C 192.582031 183.703125 192.726562 190.582031 196.574219 196.171875 C 199.726562 200.765625 204.644531 203.425781 209.464844 203.425781 Z M 233.753906 152.046875 C 238.761719 154.539062 251.574219 171.609375 252.710938 178.007812 C 252.710938 178.226562 252.71875 178.550781 252.730469 178.734375 C 247.835938 180.367188 227.695312 185.667969 209.457031 190.25 C 208.609375 190.863281 206.089844 187.425781 206.789062 186.449219 C 218.421875 170.890625 231.785156 153.53125 233.753906 152.046875 Z M 233.753906 152.046875 " fill-opacity="1" fill-rule="nonzero"/><path fill="rgb(100%, 100%, 100%)" d="M 224.320312 269.0625 C 226.59375 271.027344 229.351562 272.035156 232.320312 272.035156 C 234.078125 272.035156 235.917969 271.675781 237.753906 270.949219 C 247.023438 267.15625 264.464844 246.867188 265.769531 236.449219 C 266.511719 231.296875 264.859375 226.769531 261.417969 223.960938 C 260.160156 222.8125 258.734375 221.5 215.023438 208.207031 C 209.308594 206.214844 203.078125 208.144531 199.089844 213.15625 C 194.894531 218.421875 194.421875 225.566406 197.703125 230.621094 C 197.898438 230.964844 221.089844 266.71875 224.320312 269.0625 Z M 209.351562 221.371094 C 209.511719 221.179688 210 220.617188 210.507812 220.617188 C 211.285156 220.828125 211.015625 220.757812 211.070312 220.773438 C 228.492188 226.074219 247.84375 232.199219 252.792969 234.125 C 252.605469 239.660156 238.316406 256.335938 232.625 258.703125 C 228.546875 253.457031 210.597656 226.636719 208.898438 223.785156 C 208.390625 222.976562 208.96875 221.851562 209.351562 221.371094 Z M 209.351562 221.371094 " fill-opacity="1" fill-rule="nonzero"/></svg>